<!DOCTYPE svg PUBLIC "-//W3C//DTD SVG 1.1//EN" "http://www.w3.org/Graphics/SVG/1.1/DTD/svg11.dtd">
<!-- Uploaded to: SVG Repo, www.svgrepo.com, Transformed by: SVG Repo Mixer Tools -->
<svg width="800px" height="800px" viewBox="0 0 24 24" fill="none" xmlns="http://www.w3.org/2000/svg">
<g id="SVGRepo_bgCarrier" stroke-width="0"/>
<g id="SVGRepo_tracerCarrier" stroke-linecap="round" stroke-linejoin="round"/>
<g id="SVGRepo_iconCarrier"> <path d="M4.33327 15.2485L5.06432 15.0809L4.33327 15.2485ZM4.33327 9.35323L5.06432 9.52078L4.33327 9.35323ZM20.6667 9.35323L19.9357 9.52079L20.6667 9.35323ZM20.6667 15.2485L19.9357 15.0809L20.6667 15.2485ZM15.3801 20.6589L15.5552 21.3882L15.3801 20.6589ZM9.61986 20.6589L9.79493 19.9296L9.61986 20.6589ZM9.61985 3.94279L9.79493 4.67207L9.61985 3.94279ZM15.3801 3.94279L15.5552 3.21351L15.3801 3.94279ZM9.32008 3C9.32008 2.58579 8.98429 2.25 8.57008 2.25C8.15587 2.25 7.82008 2.58579 7.82008 3H9.32008ZM7.82008 5.51375C7.82008 5.92796 8.15587 6.26375 8.57008 6.26375C8.98429 6.26375 9.32008 5.92796 9.32008 5.51375H7.82008ZM17.1799 3C17.1799 2.58579 16.8441 2.25 16.4299 2.25C16.0157 2.25 15.6799 2.58579 15.6799 3H17.1799ZM15.6799 5.51375C15.6799 5.92796 16.0157 6.26375 16.4299 6.26375C16.8441 6.26375 17.1799 5.92796 17.1799 5.51375H15.6799ZM9.55256 14.5674C9.13835 14.5674 8.80256 14.9031 8.80256 15.3174C8.80256 15.7316 9.13835 16.0674 9.55256 16.0674V14.5674ZM12.5 16.0674C12.9142 16.0674 13.25 15.7316 13.25 15.3174C13.25 14.9031 12.9142 14.5674 12.5 14.5674V16.0674ZM9.55256 11.5509C9.13835 11.5509 8.80256 11.8866 8.80256 12.3009C8.80256 12.7151 9.13835 13.0509 9.55256 13.0509V11.5509ZM15.4474 13.0509C15.8617 13.0509 16.1974 12.7151 16.1974 12.3009C16.1974 11.8866 15.8617 11.5509 15.4474 11.5509V13.0509ZM5.06432 15.0809C4.64523 13.2524 4.64523 11.3493 5.06432 9.52078L3.60223 9.18568C3.13259 11.2347 3.13259 13.367 3.60223 15.416L5.06432 15.0809ZM19.9357 9.52079C20.3548 11.3493 20.3548 13.2524 19.9357 15.0809L21.3978 15.416C21.8674 13.367 21.8674 11.2347 21.3978 9.18568L19.9357 9.52079ZM15.2051 19.9296C13.4258 20.3568 11.5742 20.3568 9.79493 19.9296L9.44478 21.3882C11.4543 21.8706 13.5458 21.8706 15.5552 21.3882L15.2051 19.9296ZM9.79493 4.67207C11.5742 4.24493 13.4258 4.24493 15.2051 4.67207L15.5552 3.21351C13.5458 2.73111 11.4542 2.73111 9.44478 3.21351L9.79493 4.67207ZM9.79493 19.9296C7.45607 19.3682 5.61769 17.4953 5.06432 15.0809L3.60223 15.416C4.27946 18.3708 6.53739 20.6902 9.44478 21.3882L9.79493 19.9296ZM15.5552 21.3882C18.4626 20.6902 20.7205 18.3708 21.3978 15.416L19.9357 15.0809C19.3823 17.4953 17.5439 19.3682 15.2051 19.9296L15.5552 21.3882ZM15.2051 4.67207C17.5439 5.23355 19.3823 7.10642 19.9357 9.52079L21.3978 9.18568C20.7205 6.23089 18.4626 3.91147 15.5552 3.21351L15.2051 4.67207ZM9.44478 3.21351C6.53739 3.91147 4.27946 6.23089 3.60223 9.18568L5.06432 9.52078C5.61769 7.10641 7.45607 5.23355 9.79493 4.67207L9.44478 3.21351ZM7.82008 3V5.51375H9.32008V3H7.82008ZM15.6799 3V5.51375H17.1799V3H15.6799ZM9.55256 16.0674H12.5V14.5674H9.55256V16.0674ZM9.55256 13.0509H15.4474V11.5509H9.55256V13.0509Z" fill="#004643"/> </g>
</svg>