<svg width="646" height="565" viewBox="0 0 646 565" fill="none" xmlns="http://www.w3.org/2000/svg">
<path d="M241.163 232.079L249.306 234.299C240.608 261.133 230.985 284.08 220.622 302.771C210.258 321.462 196.009 339.598 177.688 356.623C163.624 410.845 151.41 452.113 141.047 480.982C130.868 509.667 121.43 529.838 112.733 541.126C104.22 552.415 95.5221 559.077 86.6393 560.928C72.3898 564.629 58.3253 562.778 44.4459 555.006C30.5665 547.233 20.0182 535.02 12.8009 518.364C5.39856 501.709 4.28821 481.908 9.46985 459.146C14.2814 440.64 22.0538 425.465 32.9723 413.066C43.7057 400.667 56.6598 390.119 71.4645 381.236C86.2692 372.353 102.184 364.025 119.025 355.883C124.576 353.107 130.313 350.331 136.05 347.555C140.306 330.715 144.563 313.875 148.819 297.034C142.342 308.323 135.125 318.501 127.352 327.939C119.58 337.192 111.807 343.299 104.22 345.705C94.2267 348.295 85.714 346.26 78.6818 339.598C71.4645 332.936 67.3932 322.017 66.4679 307.212C65.3575 292.593 69.0587 274.272 77.2013 252.805C82.1979 240.406 88.86 228.007 97.3727 215.608C105.7 203.395 114.768 193.401 124.206 185.444C133.829 177.671 143.082 173.97 151.78 174.71C160.293 175.266 167.51 182.298 173.062 195.622C173.432 196.732 173.802 197.843 174.172 198.768C175.652 193.216 176.393 190.44 176.393 190.44C178.798 184.704 183.795 181.188 191.382 179.707C199.155 178.227 206.187 178.782 212.664 181.188C219.326 183.593 221.917 187.665 220.622 193.586C216.921 205.43 212.109 222.456 206.002 244.848C200.08 267.24 193.603 291.482 186.941 317.761C193.048 313.875 201.746 303.696 213.034 287.041C224.323 270.386 233.761 252.065 241.163 232.079ZM124.576 292.038C124.576 292.038 126.982 289.262 132.164 283.895C137.16 278.343 142.712 271.311 148.634 262.983C154.556 254.471 158.997 245.403 162.328 235.78C165.474 226.157 165.659 217.089 162.513 208.576C161.033 204.32 159.367 201.729 157.517 200.989C155.481 200.249 152.335 202.284 147.524 206.726C140.121 214.128 133.829 223.196 128.463 233.744C123.096 244.292 119.025 254.286 116.064 263.724C113.103 273.162 111.437 279.639 111.067 283.34C110.697 286.486 110.697 288.892 111.252 290.742C111.622 292.408 112.547 293.518 113.473 294.258C114.583 294.813 115.693 294.999 116.989 294.999C118.099 294.813 119.395 294.443 120.505 294.073C121.615 293.518 122.541 293.148 123.466 292.778C124.206 292.223 124.576 292.038 124.576 292.038ZM112.547 442.49C115.508 429.536 120.135 410.66 126.242 386.047C120.875 389.193 115.138 392.339 109.401 395.485C94.5968 402.888 79.6071 412.511 64.2472 424.169C48.5172 437.679 38.7091 451.373 34.6378 465.438C30.5665 479.502 30.0114 492.641 33.1573 504.485C36.3033 516.329 40.9298 525.582 46.8517 532.244C52.7736 538.906 57.9552 541.497 62.3966 539.831C70.7242 535.575 79.6071 524.841 88.6749 507.631C97.9279 490.42 105.885 468.583 112.547 442.49ZM353.979 230.043L361.381 233.744C349.353 257.987 336.213 279.824 321.964 299.255C307.714 318.686 293.095 332.565 278.29 340.893C263.3 349.221 248.866 349.036 234.986 340.338C225.363 332.75 219.627 322.572 217.776 309.803C216.11 297.034 217.406 283.155 221.662 268.535C225.919 253.916 232.396 239.851 240.908 226.712C249.421 213.388 259.229 202.469 270.148 193.957C281.066 185.444 292.169 181.002 303.273 181.002C309.935 181.002 315.117 182.668 318.633 186.184C322.149 189.515 324.555 193.401 325.85 198.213C327.331 202.839 328.071 207.281 328.071 211.537C328.256 215.793 328.071 218.939 327.886 221.16C326.405 234.854 319.928 246.883 308.27 257.432C296.796 267.795 280.141 273.532 258.489 274.457C252.567 288.151 251.086 298.7 253.492 305.732C256.083 312.764 262.375 315.54 272.368 314.06C281.806 312.024 291.244 306.842 300.682 298.33C310.305 289.817 319.003 280.194 326.961 269.646C335.103 259.282 341.58 250.029 346.577 242.072C351.388 234.114 353.979 230.043 353.979 230.043ZM308.455 238.556C310.49 235.41 311.045 232.634 309.75 230.043C308.64 227.452 306.234 225.972 302.903 225.972C299.942 226.157 296.611 227.082 292.91 229.118C289.023 231.153 284.952 234.669 280.696 239.666C278.29 242.442 276.254 245.033 274.404 247.624C279.771 248.364 285.878 248.179 292.54 247.253C299.017 246.328 304.383 243.367 308.455 238.556ZM466.055 230.043L473.457 233.744C461.428 257.987 448.289 279.824 434.04 299.255C419.79 318.686 405.17 332.565 390.366 340.893C375.376 349.221 360.941 349.036 347.062 340.338C337.439 332.75 331.702 322.572 329.852 309.803C328.186 297.034 329.481 283.155 333.738 268.535C337.994 253.916 344.471 239.851 352.984 226.712C361.497 213.388 371.305 202.469 382.223 193.957C393.142 185.444 404.245 181.002 415.349 181.002C422.011 181.002 427.192 182.668 430.708 186.184C434.225 189.515 436.63 193.401 437.926 198.213C439.406 202.839 440.146 207.281 440.146 211.537C440.332 215.793 440.146 218.939 439.961 221.16C438.481 234.854 432.004 246.883 420.345 257.432C408.872 267.795 392.216 273.532 370.564 274.457C364.643 288.151 363.162 298.7 365.568 305.732C368.159 312.764 374.451 315.54 384.444 314.06C393.882 312.024 403.32 306.842 412.758 298.33C422.381 289.817 431.079 280.194 439.036 269.646C447.179 259.282 453.656 250.029 458.652 242.072C463.464 234.114 466.055 230.043 466.055 230.043ZM420.53 238.556C422.566 235.41 423.121 232.634 421.826 230.043C420.715 227.452 418.31 225.972 414.979 225.972C412.018 226.157 408.687 227.082 404.985 229.118C401.099 231.153 397.028 234.669 392.771 239.666C390.366 242.442 388.33 245.033 386.479 247.624C391.846 248.364 397.953 248.179 404.615 247.253C411.092 246.328 416.459 243.367 420.53 238.556ZM566.102 231.894C557.589 258.172 548.151 277.048 537.973 288.521C527.609 300.18 517.246 308.138 506.513 312.209C518.727 338.302 524.463 358.844 523.908 374.389C523.168 389.749 518.727 400.667 510.214 407.144C501.886 413.621 492.078 416.212 480.975 415.102C469.871 413.991 459.878 409.735 450.995 402.518C441.002 393.265 435.08 381.976 433.229 368.837C431.379 355.513 431.564 342.929 433.6 331.27C435.635 319.611 437.301 311.654 438.781 307.212C438.966 306.472 439.151 305.917 439.151 305.547C429.343 300.18 422.681 293.888 419.35 286.301C416.019 278.898 416.759 271.866 421.571 265.204C423.421 262.613 427.122 260.208 432.304 258.357C437.671 256.321 443.963 255.766 451.365 256.691C458.027 229.673 465.245 201.544 472.647 172.49C480.234 143.25 486.711 118.268 492.078 97.356C497.445 76.4443 500.221 65.896 500.221 65.896C500.221 65.896 501.886 65.5259 505.217 64.6006C508.548 63.8604 512.62 62.9351 517.246 62.0098C522.058 61.0845 526.684 60.5293 531.125 60.3442C535.752 60.1592 539.268 60.7144 541.859 62.0098C544.45 63.3052 545.375 65.7109 544.265 69.2271C538.158 89.5835 529.46 121.043 518.356 163.422C507.253 205.985 497.26 245.218 488.377 281.304C488.747 281.674 489.117 282.044 489.302 282.415C490.598 284.08 491.708 285.375 492.633 286.856C493.559 288.151 494.669 290.002 496.149 292.408C509.289 289.077 520.207 283.525 528.72 275.567C537.232 267.61 543.894 259.467 548.521 251.14C553.147 242.627 556.478 235.78 558.144 230.783L566.102 231.894ZM446.554 275.752C441.187 274.087 437.856 273.717 436.56 274.642C435.265 275.567 438.041 278.158 444.888 282.415C445.443 280.379 445.998 278.158 446.554 275.752ZM502.441 398.446C506.883 396.596 508.548 391.969 507.808 384.382C507.068 376.794 504.847 368.282 501.146 358.659C497.445 349.221 493.559 340.708 489.302 333.121C485.046 325.533 481.715 320.722 479.309 318.871C478.569 322.202 477.829 328.494 477.273 337.747C476.718 347.185 476.903 356.808 477.829 367.171C478.754 377.535 481.16 385.862 484.861 392.339C488.747 398.816 494.484 400.852 502.441 398.446ZM630.247 233.744H636.909C622.845 268.35 608.41 295.739 593.605 315.54C578.986 335.526 565.847 345.89 554.003 346.63C547.341 347.185 541.604 344.224 536.977 338.117C532.166 331.825 530.315 323.312 531.241 312.209C532.166 306.102 536.422 288.151 544.01 258.727C551.597 229.303 559.925 197.658 568.993 163.792C559.555 163.237 553.818 162.126 551.782 160.091C550.487 158.425 549.561 155.834 548.821 151.948C548.081 148.247 547.896 144.731 548.636 141.585C549.191 138.439 551.042 137.144 554.188 137.514C561.59 138.994 568.437 140.29 575.099 141.03C580.836 119.563 585.648 101.612 589.534 87.3628C593.42 73.1133 595.271 66.0811 595.271 66.0811C595.271 66.0811 596.936 65.5259 600.267 64.6006C603.784 63.8604 607.67 62.9351 612.481 62.0098C617.293 61.0845 621.919 60.7144 626.361 60.5293C630.802 60.3442 634.503 60.8994 637.094 62.0098C639.685 63.3052 640.425 65.7109 639.5 69.2271C635.058 83.2915 627.656 107.719 617.293 142.695C621.364 142.51 624.88 142.325 628.211 142.14C638.945 141.03 644.682 141.585 645.607 143.806C645.792 144.731 645.607 146.026 645.237 147.692C644.867 149.357 644.311 150.838 643.386 152.503C642.646 153.984 641.721 154.909 640.795 155.464C633.393 158.425 623.585 160.646 611.741 162.126C605.634 183.593 599.897 204.32 594.531 224.306C589.349 244.478 585.463 261.133 583.057 274.272C580.836 287.411 580.836 294.258 583.242 294.813C586.943 294.628 591.385 291.482 596.751 285.561C601.933 279.454 607.115 272.421 612.111 264.464C617.293 256.506 621.549 249.474 625.065 243.182C628.396 236.89 630.247 233.744 630.247 233.744Z" fill="#BACDCC"/>
<path d="M237.163 225.079L245.306 227.299C236.608 254.133 226.985 277.08 216.622 295.771C206.258 314.462 192.009 332.598 173.688 349.623C159.624 403.845 147.41 445.113 137.047 473.982C126.868 502.667 117.43 522.838 108.733 534.126C100.22 545.415 91.5221 552.077 82.6393 553.928C68.3898 557.629 54.3253 555.778 40.4459 548.006C26.5665 540.233 16.0182 528.02 8.8009 511.364C1.39856 494.709 0.288208 474.908 5.46985 452.146C10.2814 433.64 18.0538 418.465 28.9723 406.066C39.7057 393.667 52.6598 383.119 67.4645 374.236C82.2692 365.353 98.1842 357.025 115.025 348.883C120.576 346.107 126.313 343.331 132.05 340.555C136.306 323.715 140.563 306.875 144.819 290.034C138.342 301.323 131.125 311.501 123.352 320.939C115.58 330.192 107.807 336.299 100.22 338.705C90.2267 341.295 81.714 339.26 74.6818 332.598C67.4645 325.936 63.3932 315.017 62.4679 300.212C61.3575 285.593 65.0587 267.272 73.2013 245.805C78.1979 233.406 84.86 221.007 93.3727 208.608C101.7 196.395 110.768 186.401 120.206 178.444C129.829 170.671 139.082 166.97 147.78 167.71C156.293 168.266 163.51 175.298 169.062 188.622C169.432 189.732 169.802 190.843 170.172 191.768C171.652 186.216 172.393 183.44 172.393 183.44C174.798 177.704 179.795 174.188 187.382 172.707C195.155 171.227 202.187 171.782 208.664 174.188C215.326 176.593 217.917 180.665 216.622 186.586C212.921 198.43 208.109 215.456 202.002 237.848C196.08 260.24 189.603 284.482 182.941 310.761C189.048 306.875 197.746 296.696 209.034 280.041C220.323 263.386 229.761 245.065 237.163 225.079ZM120.576 285.038C120.576 285.038 122.982 282.262 128.164 276.895C133.16 271.343 138.712 264.311 144.634 255.983C150.556 247.471 154.997 238.403 158.328 228.78C161.474 219.157 161.659 210.089 158.513 201.576C157.033 197.32 155.367 194.729 153.517 193.989C151.481 193.249 148.335 195.284 143.524 199.726C136.121 207.128 129.829 216.196 124.463 226.744C119.096 237.292 115.025 247.286 112.064 256.724C109.103 266.162 107.437 272.639 107.067 276.34C106.697 279.486 106.697 281.892 107.252 283.742C107.622 285.408 108.547 286.518 109.473 287.258C110.583 287.813 111.693 287.999 112.989 287.999C114.099 287.813 115.395 287.443 116.505 287.073C117.615 286.518 118.541 286.148 119.466 285.778C120.206 285.223 120.576 285.038 120.576 285.038ZM108.547 435.49C111.508 422.536 116.135 403.66 122.242 379.047C116.875 382.193 111.138 385.339 105.401 388.485C90.5968 395.888 75.6071 405.511 60.2472 417.169C44.5172 430.679 34.7091 444.373 30.6378 458.438C26.5665 472.502 26.0114 485.641 29.1573 497.485C32.3033 509.329 36.9298 518.582 42.8517 525.244C48.7736 531.906 53.9552 534.497 58.3966 532.831C66.7242 528.575 75.6071 517.841 84.6749 500.631C93.9279 483.42 101.885 461.583 108.547 435.49ZM349.979 223.043L357.381 226.744C345.353 250.987 332.213 272.824 317.964 292.255C303.714 311.686 289.095 325.565 274.29 333.893C259.3 342.221 244.866 342.036 230.986 333.338C221.363 325.75 215.627 315.572 213.776 302.803C212.11 290.034 213.406 276.155 217.662 261.535C221.919 246.916 228.396 232.851 236.908 219.712C245.421 206.388 255.229 195.469 266.148 186.957C277.066 178.444 288.169 174.002 299.273 174.002C305.935 174.002 311.117 175.668 314.633 179.184C318.149 182.515 320.555 186.401 321.85 191.213C323.331 195.839 324.071 200.281 324.071 204.537C324.256 208.793 324.071 211.939 323.886 214.16C322.405 227.854 315.928 239.883 304.27 250.432C292.796 260.795 276.141 266.532 254.489 267.457C248.567 281.151 247.086 291.7 249.492 298.732C252.083 305.764 258.375 308.54 268.368 307.06C277.806 305.024 287.244 299.842 296.682 291.33C306.305 282.817 315.003 273.194 322.961 262.646C331.103 252.282 337.58 243.029 342.577 235.072C347.388 227.114 349.979 223.043 349.979 223.043ZM304.455 231.556C306.49 228.41 307.045 225.634 305.75 223.043C304.64 220.452 302.234 218.972 298.903 218.972C295.942 219.157 292.611 220.082 288.91 222.118C285.023 224.153 280.952 227.669 276.696 232.666C274.29 235.442 272.254 238.033 270.404 240.624C275.771 241.364 281.878 241.179 288.54 240.253C295.017 239.328 300.383 236.367 304.455 231.556ZM462.055 223.043L469.457 226.744C457.428 250.987 444.289 272.824 430.04 292.255C415.79 311.686 401.17 325.565 386.366 333.893C371.376 342.221 356.941 342.036 343.062 333.338C333.439 325.75 327.702 315.572 325.852 302.803C324.186 290.034 325.481 276.155 329.738 261.535C333.994 246.916 340.471 232.851 348.984 219.712C357.497 206.388 367.305 195.469 378.223 186.957C389.142 178.444 400.245 174.002 411.349 174.002C418.011 174.002 423.192 175.668 426.708 179.184C430.225 182.515 432.63 186.401 433.926 191.213C435.406 195.839 436.146 200.281 436.146 204.537C436.332 208.793 436.146 211.939 435.961 214.16C434.481 227.854 428.004 239.883 416.345 250.432C404.872 260.795 388.216 266.532 366.564 267.457C360.643 281.151 359.162 291.7 361.568 298.732C364.159 305.764 370.451 308.54 380.444 307.06C389.882 305.024 399.32 299.842 408.758 291.33C418.381 282.817 427.079 273.194 435.036 262.646C443.179 252.282 449.656 243.029 454.652 235.072C459.464 227.114 462.055 223.043 462.055 223.043ZM416.53 231.556C418.566 228.41 419.121 225.634 417.826 223.043C416.715 220.452 414.31 218.972 410.979 218.972C408.018 219.157 404.687 220.082 400.985 222.118C397.099 224.153 393.028 227.669 388.771 232.666C386.366 235.442 384.33 238.033 382.479 240.624C387.846 241.364 393.953 241.179 400.615 240.253C407.092 239.328 412.459 236.367 416.53 231.556ZM562.102 224.894C553.589 251.172 544.151 270.048 533.973 281.521C523.609 293.18 513.246 301.138 502.513 305.209C514.727 331.302 520.463 351.844 519.908 367.389C519.168 382.749 514.727 393.667 506.214 400.144C497.886 406.621 488.078 409.212 476.975 408.102C465.871 406.991 455.878 402.735 446.995 395.518C437.002 386.265 431.08 374.976 429.229 361.837C427.379 348.513 427.564 335.929 429.6 324.27C431.635 312.611 433.301 304.654 434.781 300.212C434.966 299.472 435.151 298.917 435.151 298.547C425.343 293.18 418.681 286.888 415.35 279.301C412.019 271.898 412.759 264.866 417.571 258.204C419.421 255.613 423.122 253.208 428.304 251.357C433.671 249.321 439.963 248.766 447.365 249.691C454.027 222.673 461.245 194.544 468.647 165.49C476.234 136.25 482.711 111.268 488.078 90.356C493.445 69.4443 496.221 58.896 496.221 58.896C496.221 58.896 497.886 58.5259 501.217 57.6006C504.548 56.8604 508.62 55.9351 513.246 55.0098C518.058 54.0845 522.684 53.5293 527.125 53.3442C531.752 53.1592 535.268 53.7144 537.859 55.0098C540.45 56.3052 541.375 58.7109 540.265 62.2271C534.158 82.5835 525.46 114.043 514.356 156.422C503.253 198.985 493.26 238.218 484.377 274.304C484.747 274.674 485.117 275.044 485.302 275.415C486.598 277.08 487.708 278.375 488.633 279.856C489.559 281.151 490.669 283.002 492.149 285.408C505.289 282.077 516.207 276.525 524.72 268.567C533.232 260.61 539.894 252.467 544.521 244.14C549.147 235.627 552.478 228.78 554.144 223.783L562.102 224.894ZM442.554 268.752C437.187 267.087 433.856 266.717 432.56 267.642C431.265 268.567 434.041 271.158 440.888 275.415C441.443 273.379 441.998 271.158 442.554 268.752ZM498.441 391.446C502.883 389.596 504.548 384.969 503.808 377.382C503.068 369.794 500.847 361.282 497.146 351.659C493.445 342.221 489.559 333.708 485.302 326.121C481.046 318.533 477.715 313.722 475.309 311.871C474.569 315.202 473.829 321.494 473.273 330.747C472.718 340.185 472.903 349.808 473.829 360.171C474.754 370.535 477.16 378.862 480.861 385.339C484.747 391.816 490.484 393.852 498.441 391.446ZM626.247 226.744H632.909C618.845 261.35 604.41 288.739 589.605 308.54C574.986 328.526 561.847 338.89 550.003 339.63C543.341 340.185 537.604 337.224 532.977 331.117C528.166 324.825 526.315 316.312 527.241 305.209C528.166 299.102 532.422 281.151 540.01 251.727C547.597 222.303 555.925 190.658 564.993 156.792C555.555 156.237 549.818 155.126 547.782 153.091C546.487 151.425 545.561 148.834 544.821 144.948C544.081 141.247 543.896 137.731 544.636 134.585C545.191 131.439 547.042 130.144 550.188 130.514C557.59 131.994 564.437 133.29 571.099 134.03C576.836 112.563 581.648 94.6123 585.534 80.3628C589.42 66.1133 591.271 59.0811 591.271 59.0811C591.271 59.0811 592.936 58.5259 596.267 57.6006C599.784 56.8604 603.67 55.9351 608.481 55.0098C613.293 54.0845 617.919 53.7144 622.361 53.5293C626.802 53.3442 630.503 53.8994 633.094 55.0098C635.685 56.3052 636.425 58.7109 635.5 62.2271C631.058 76.2915 623.656 100.719 613.293 135.695C617.364 135.51 620.88 135.325 624.211 135.14C634.945 134.03 640.682 134.585 641.607 136.806C641.792 137.731 641.607 139.026 641.237 140.692C640.867 142.357 640.311 143.838 639.386 145.503C638.646 146.984 637.721 147.909 636.795 148.464C629.393 151.425 619.585 153.646 607.741 155.126C601.634 176.593 595.897 197.32 590.531 217.306C585.349 237.478 581.463 254.133 579.057 267.272C576.836 280.411 576.836 287.258 579.242 287.813C582.943 287.628 587.385 284.482 592.751 278.561C597.933 272.454 603.115 265.421 608.111 257.464C613.293 249.506 617.549 242.474 621.065 236.182C624.396 229.89 626.247 226.744 626.247 226.744Z" fill="#004643"/>
</svg>
