<svg width="1747" height="1548" viewBox="0 0 1747 1548" fill="none" xmlns="http://www.w3.org/2000/svg">
<path d="M649.403 529.198L671.914 536.04C647.868 618.711 621.264 689.408 592.613 746.992C563.962 804.577 524.566 860.451 473.916 912.904C435.032 1079.96 401.265 1207.1 372.614 1296.04C344.474 1384.41 318.381 1446.56 294.335 1481.33C270.8 1516.11 246.754 1536.64 222.196 1542.34C182.801 1553.74 143.917 1548.04 105.545 1524.1C67.1734 1500.15 38.0107 1462.52 18.0574 1411.21C-2.40765 1359.89 -5.4774 1298.89 8.84811 1228.76C22.1504 1171.75 43.6386 1125 73.8245 1086.8C103.499 1048.6 139.313 1016.1 180.243 988.733C221.173 961.366 265.172 935.709 311.73 910.623C327.079 902.071 342.939 893.519 358.8 884.967C370.567 833.084 382.335 781.201 394.102 729.318C376.195 764.097 356.242 795.454 334.753 824.532C313.265 853.039 291.777 871.853 270.8 879.265C243.173 887.247 219.638 880.976 200.196 860.451C180.243 839.926 168.987 806.287 166.429 760.676C163.359 715.635 173.591 659.191 196.103 593.054C209.917 554.855 228.335 516.655 251.87 478.456C274.893 440.826 299.963 410.039 326.056 385.523C352.66 361.577 378.242 350.174 402.288 352.454C425.823 354.165 445.776 375.83 461.125 416.88C462.148 420.301 463.171 423.722 464.195 426.573C468.288 409.469 470.334 400.916 470.334 400.916C476.985 383.242 490.799 372.409 511.776 367.848C533.264 363.287 552.706 364.998 570.613 372.409C589.031 379.821 596.194 392.364 592.613 410.609C582.38 447.098 569.078 499.551 552.194 568.538C535.822 637.525 517.915 712.214 499.497 793.174C516.38 781.201 540.427 749.843 571.636 698.53C602.845 647.218 628.938 590.774 649.403 529.198ZM327.079 713.924C327.079 713.924 333.73 705.372 348.056 688.838C361.87 671.734 377.218 650.068 393.59 624.412C409.962 598.185 422.241 570.249 431.451 540.601C440.148 510.954 440.66 483.017 431.962 456.79C427.869 443.677 423.265 435.695 418.148 433.415C412.52 431.134 403.823 437.406 390.521 451.089C370.056 473.895 352.66 501.832 337.823 534.33C322.986 566.828 311.73 597.615 303.544 626.693C295.358 655.77 290.754 675.725 289.73 687.128C288.707 696.82 288.707 704.232 290.242 709.933C291.265 715.065 293.823 718.485 296.382 720.766C299.451 722.476 302.521 723.047 306.102 723.047C309.172 722.476 312.754 721.336 315.823 720.196C318.893 718.485 321.451 717.345 324.009 716.205C326.056 714.494 327.079 713.924 327.079 713.924ZM293.823 1177.45C302.009 1137.54 314.8 1079.39 331.684 1003.56C316.847 1013.25 300.986 1022.94 285.126 1032.63C244.196 1055.44 202.754 1085.09 160.289 1121.01C116.801 1162.63 89.6849 1204.82 78.4291 1248.15C67.1734 1291.48 65.6385 1331.96 74.3361 1368.45C83.0338 1404.94 95.8244 1433.44 112.196 1453.97C128.568 1474.49 142.894 1482.48 155.173 1477.34C178.196 1464.23 202.754 1431.16 227.824 1378.14C253.405 1325.12 275.405 1257.84 293.823 1177.45Z" fill="#004643"/>
<path d="M955.931 522.927L976.396 534.33C943.141 609.018 906.815 676.295 867.42 736.16C828.025 796.025 787.607 838.785 746.677 864.442C705.235 890.098 665.328 889.528 626.956 862.731C600.352 839.355 584.491 807.998 579.375 768.658C574.771 729.318 578.352 686.557 590.119 641.516C601.887 596.475 619.794 553.144 643.328 512.664C666.863 471.614 693.979 437.976 724.165 411.749C754.351 385.523 785.049 371.839 815.746 371.839C834.165 371.839 848.49 376.971 858.211 387.803C867.932 398.066 874.583 410.039 878.164 424.862C882.257 439.116 884.304 452.799 884.304 465.913C884.816 479.026 884.304 488.718 883.792 495.56C879.699 537.75 861.792 574.81 829.56 607.308C797.839 639.236 751.793 656.91 691.933 659.761C675.561 701.951 671.468 734.449 678.119 756.115C685.282 777.78 702.677 786.332 730.305 781.771C756.398 775.5 782.49 759.536 808.583 733.309C835.188 707.083 859.234 677.435 881.234 644.937C903.746 613.009 921.653 584.502 935.466 559.986C948.769 535.47 955.931 522.927 955.931 522.927ZM830.072 549.153C835.7 539.461 837.234 530.909 833.653 522.927C830.583 514.945 823.932 510.384 814.723 510.384C806.537 510.954 797.328 513.805 787.095 520.076C776.351 526.348 765.095 537.18 753.328 552.574C746.677 561.126 741.049 569.108 735.933 577.09C750.77 579.371 767.653 578.801 786.072 575.95C803.979 573.099 818.816 563.977 830.072 549.153Z" fill="#004643"/>
<path d="M1260.41 522.927L1280.88 534.33C1247.62 609.018 1211.3 676.295 1171.9 736.16C1132.51 796.025 1092.09 838.785 1051.16 864.442C1009.72 890.098 969.81 889.528 931.438 862.731C904.834 839.355 888.973 807.998 883.857 768.658C879.253 729.318 882.834 686.557 894.601 641.516C906.369 596.475 924.276 553.144 947.81 512.664C971.345 471.614 998.461 437.976 1028.65 411.749C1058.83 385.523 1089.53 371.839 1120.23 371.839C1138.65 371.839 1152.97 376.971 1162.69 387.803C1172.41 398.066 1179.06 410.039 1182.65 424.862C1186.74 439.116 1188.79 452.799 1188.79 465.913C1189.3 479.026 1188.79 488.718 1188.27 495.56C1184.18 537.75 1166.27 574.81 1134.04 607.308C1102.32 639.236 1056.27 656.91 996.415 659.761C980.043 701.951 975.95 734.449 982.601 756.115C989.764 777.78 1007.16 786.332 1034.79 781.771C1060.88 775.5 1086.97 759.536 1113.07 733.309C1139.67 707.083 1163.72 677.435 1185.72 644.937C1208.23 613.009 1226.13 584.502 1239.95 559.986C1253.25 535.47 1260.41 522.927 1260.41 522.927ZM1134.55 549.153C1140.18 539.461 1141.72 530.909 1138.13 522.927C1135.07 514.945 1128.41 510.384 1119.2 510.384C1111.02 510.954 1101.81 513.805 1091.58 520.076C1080.83 526.348 1069.58 537.18 1057.81 552.574C1051.16 561.126 1045.53 569.108 1040.41 577.09C1055.25 579.371 1072.14 578.801 1090.55 575.95C1108.46 573.099 1123.3 563.977 1134.55 549.153Z" fill="#004643"/>
<path d="M1531.64 528.628C1508.1 609.588 1482.01 667.743 1453.87 703.092C1425.22 739.01 1396.57 763.527 1366.9 776.07C1400.66 856.46 1416.52 919.745 1414.99 967.637C1412.94 1014.96 1400.66 1048.6 1377.13 1068.55C1354.11 1088.51 1326.99 1096.49 1296.29 1093.07C1265.59 1089.65 1237.97 1076.53 1213.41 1054.3C1185.78 1025.79 1169.41 991.013 1164.29 950.533C1159.18 909.483 1159.69 870.713 1165.32 834.794C1170.94 798.875 1175.55 774.359 1179.64 760.676C1180.15 758.395 1180.66 756.685 1180.66 755.545C1153.55 739.01 1135.13 719.626 1125.92 696.25C1116.71 673.444 1118.76 651.779 1132.06 631.254C1137.18 623.272 1147.41 615.86 1161.73 610.158C1176.57 603.887 1193.97 602.176 1214.43 605.027C1232.85 521.787 1252.8 435.125 1273.27 345.613C1294.25 255.53 1312.15 178.561 1326.99 114.135C1341.83 49.7092 1349.5 17.2112 1349.5 17.2112C1349.5 17.2112 1354.11 16.0709 1363.31 13.2202C1372.52 10.9396 1383.78 8.08888 1396.57 5.23818C1409.87 2.38747 1422.66 0.677043 1434.94 0.106902C1447.73 -0.46324 1457.45 1.24718 1464.62 5.23818C1471.78 9.22917 1474.34 16.641 1471.27 27.4737C1454.38 90.1893 1430.34 187.113 1399.64 317.676C1368.94 448.808 1341.32 569.678 1316.76 680.856C1317.78 681.996 1318.8 683.137 1319.32 684.277C1322.9 689.408 1325.97 693.399 1328.52 697.96C1331.08 701.951 1334.15 707.653 1338.25 715.065C1374.57 704.802 1404.76 687.698 1428.29 663.182C1451.83 638.666 1470.24 613.579 1483.04 587.923C1495.83 561.696 1505.04 540.601 1509.64 525.207L1531.64 528.628ZM1201.13 663.752C1186.29 658.621 1177.08 657.48 1173.5 660.331C1169.92 663.182 1177.59 671.164 1196.53 684.277C1198.06 678.005 1199.59 671.164 1201.13 663.752ZM1355.64 1041.76C1367.92 1036.05 1372.52 1021.8 1370.48 998.425C1368.43 975.049 1362.29 948.823 1352.06 919.175C1341.83 890.098 1331.08 863.871 1319.32 840.496C1307.55 817.12 1298.34 802.296 1291.69 796.595C1289.64 806.857 1287.59 826.242 1286.06 854.749C1284.52 883.826 1285.04 913.474 1287.59 945.402C1290.15 977.33 1296.8 1002.99 1307.04 1022.94C1317.78 1042.9 1333.64 1049.17 1355.64 1041.76Z" fill="#004643"/>
<path d="M1703.61 534.33H1722.03C1683.15 640.946 1643.24 725.327 1602.31 786.332C1561.89 847.908 1525.57 879.835 1492.82 882.116C1474.4 883.826 1458.54 874.704 1445.75 855.89C1432.45 836.505 1427.33 810.278 1429.89 776.07C1432.45 757.255 1444.22 701.951 1465.19 611.299C1486.17 520.646 1509.19 423.152 1534.26 318.816C1508.17 317.106 1492.31 313.685 1486.68 307.413C1483.1 302.282 1480.54 294.3 1478.5 282.327C1476.45 270.924 1475.94 260.091 1477.98 250.399C1479.52 240.707 1484.64 236.716 1493.33 237.856C1513.8 242.417 1532.73 246.408 1551.15 248.689C1567.01 182.552 1580.31 127.248 1591.05 83.3476C1601.8 39.4467 1606.91 17.7813 1606.91 17.7813C1606.91 17.7813 1611.52 16.0709 1620.73 13.2202C1630.45 10.9396 1641.19 8.08888 1654.49 5.23818C1667.8 2.38747 1680.59 1.24718 1692.87 0.677043C1705.15 0.106902 1715.38 1.81733 1722.54 5.23818C1729.7 9.22917 1731.75 16.641 1729.19 27.4737C1716.91 70.8045 1696.45 146.063 1667.8 253.82C1679.05 253.25 1688.77 252.68 1697.98 252.11C1727.66 248.689 1743.52 250.399 1746.08 257.241C1746.59 260.091 1746.08 264.082 1745.05 269.214C1744.03 274.345 1742.49 278.906 1739.94 284.037C1737.89 288.599 1735.33 291.449 1732.77 293.16C1712.31 302.282 1685.19 309.124 1652.45 313.685C1635.56 379.821 1619.7 443.677 1604.87 505.252C1590.54 567.398 1579.8 618.711 1573.15 659.191C1567.01 699.671 1567.01 720.766 1573.66 722.476C1583.89 721.906 1596.17 712.214 1611.01 693.969C1625.33 675.155 1639.66 653.489 1653.47 628.973C1667.8 604.457 1679.56 582.792 1689.29 563.407C1698.49 544.022 1703.61 534.33 1703.61 534.33Z" fill="#004643"/>
</svg>
