<svg width="24" height="25" viewBox="0 0 24 25" fill="none" xmlns="http://www.w3.org/2000/svg">
<g clip-path="url(#clip0_184_8953)">
<path d="M23 4.5V10.5H17" stroke="#60365E" stroke-width="3" stroke-linecap="round" stroke-linejoin="round"/>
<path d="M1 20.5V14.5H7" stroke="#60365E" stroke-width="3" stroke-linecap="round" stroke-linejoin="round"/>
<path d="M3.51 9.49959C4.01717 8.06637 4.87913 6.78499 6.01547 5.77501C7.1518 4.76502 8.52547 4.05935 10.0083 3.72385C11.4911 3.38834 13.0348 3.43393 14.4952 3.85636C15.9556 4.27879 17.2853 5.0643 18.36 6.13959L23 10.4996M1 14.4996L5.64 18.8596C6.71475 19.9349 8.04437 20.7204 9.50481 21.1428C10.9652 21.5652 12.5089 21.6108 13.9917 21.2753C15.4745 20.9398 16.8482 20.2342 17.9845 19.2242C19.1209 18.2142 19.9828 16.9328 20.49 15.4996" stroke="#60365E" stroke-width="3" stroke-linecap="round" stroke-linejoin="round"/>
</g>
<defs>
<clipPath id="clip0_184_8953">
<rect width="24" height="24" fill="white" transform="translate(0 0.5)"/>
</clipPath>
</defs>
</svg>
