<!DOCTYPE svg PUBLIC "-//W3C//DTD SVG 1.1//EN" "http://www.w3.org/Graphics/SVG/1.1/DTD/svg11.dtd">
<!-- Uploaded to: SVG Repo, www.svgrepo.com, Transformed by: SVG Repo Mixer Tools -->
<svg width="800px" height="800px" viewBox="0 0 24 24" fill="none" xmlns="http://www.w3.org/2000/svg" transform="matrix(-1, 0, 0, 1, 0, 0)">
<g id="SVGRepo_bgCarrier" stroke-width="0"/>
<g id="SVGRepo_tracerCarrier" stroke-linecap="round" stroke-linejoin="round"/>
<g id="SVGRepo_iconCarrier"> <path d="M20.3133 11.1566C20.3133 16.2137 16.2137 20.3133 11.1566 20.3133C6.09956 20.3133 2 16.2137 2 11.1566C2 6.09956 6.09956 2 11.1566 2C16.2137 2 20.3133 6.09956 20.3133 11.1566Z" fill="#004643"/> <path fill-rule="evenodd" clip-rule="evenodd" d="M18.8382 18.8382C19.1205 18.5559 19.5783 18.5559 19.8606 18.8382L21.7883 20.7659C22.0706 21.0483 22.0706 21.506 21.7883 21.7883C21.506 22.0706 21.0483 22.0706 20.7659 21.7883L18.8382 19.8606C18.5559 19.5783 18.5559 19.1205 18.8382 18.8382Z" fill="#004643"/> </g>
</svg>